<?xml version="1.0" encoding="utf-8"?>
<svg version="1.1" xmlns="http://www.w3.org/2000/svg" xmlns:xlink="http://www.w3.org/1999/xlink" fill="#fff" x="0px" y="0px" viewBox="0 0 89.8 28.1" xml:space="preserve">
<g>
	<g>
		<polygon class="st0" points="11.4,11.4 0,11.4 0,0 2.6,0 5.7,5.7 8.7,0 11.4,0"/>
		<polygon class="st0" points="0,24.5 0,13.2 11.4,13.2 11.4,15.8 5.7,18.8 11.4,21.9 11.4,24.5"/>
		<rect x="13.1" y="13.2" class="st0" width="11.4" height="11.4"/>
		<circle class="st0" cx="18.9" cy="5.7" r="5.7"/>
	</g>
	<g>
		<path class="st0" d="M32.2,21.5V4.7h5.9L41,19.3h0.4l2.9-14.6h5.9v16.8h-3.1V7h-0.4l-2.9,14.5h-5.2L35.7,7h-0.4v14.5H32.2z"/>
		<path class="st0" d="M59.9,21.8c-2.1,0-3.8-0.6-5-1.7c-1.2-1.2-1.9-2.8-1.9-5v-4c0-2.2,0.6-3.8,1.9-5c1.2-1.2,2.9-1.7,5-1.7
			c2.1,0,3.8,0.6,5,1.7c1.2,1.2,1.9,2.8,1.9,5v4c0,2.2-0.6,3.8-1.9,5C63.7,21.3,62,21.8,59.9,21.8z M59.9,19c1.2,0,2.1-0.3,2.8-1
			c0.7-0.7,1-1.6,1-2.8V11c0-1.2-0.3-2.1-1-2.8c-0.7-0.7-1.6-1-2.8-1c-1.2,0-2.1,0.3-2.7,1c-0.7,0.7-1,1.6-1,2.8v4.2
			c0,1.2,0.3,2.1,1,2.8C57.8,18.7,58.7,19,59.9,19z"/>
		<path class="st0" d="M68.6,21.5v-2.8h2.2V7.5h-2.2V4.7h8.6c1,0,1.9,0.2,2.7,0.5c0.8,0.3,1.4,0.8,1.8,1.5c0.4,0.6,0.6,1.4,0.6,2.3
			v0.2c0,0.8-0.1,1.4-0.4,1.9s-0.6,0.9-1,1.1c-0.4,0.3-0.8,0.5-1.1,0.6v0.4c0.4,0.1,0.7,0.3,1.2,0.5c0.4,0.3,0.8,0.6,1.1,1.1
			s0.4,1.1,0.4,1.9v0.2c0,0.9-0.2,1.7-0.6,2.4c-0.4,0.7-1,1.2-1.8,1.5c-0.8,0.4-1.6,0.5-2.7,0.5H68.6z M74,11.6h2.9
			c0.7,0,1.2-0.2,1.6-0.5s0.6-0.8,0.6-1.4V9.5c0-0.6-0.2-1.1-0.6-1.4c-0.4-0.3-1-0.5-1.6-0.5H74V11.6z M74,18.6h3
			c0.7,0,1.2-0.2,1.7-0.5c0.4-0.3,0.6-0.8,0.6-1.4v-0.2c0-0.6-0.2-1.1-0.6-1.4s-1-0.5-1.7-0.5h-3V18.6z"/>
		<path class="st0" d="M85,21.5V4.7h3.2v16.8H85z"/>
	</g>
</g>
</svg>
